<?xml version="1.0" standalone="no"?>
<!DOCTYPE svg PUBLIC "-//W3C//DTD SVG 20010904//EN"
 "http://www.w3.org/TR/2001/REC-SVG-20010904/DTD/svg10.dtd">
<svg version="1.0" xmlns="http://www.w3.org/2000/svg"
 width="1080.000000pt" height="720.000000pt" viewBox="0 0 1080.000000 720.000000"
 preserveAspectRatio="xMidYMid meet">
<metadata>
Created by potrace 1.16, written by Peter Selinger 2001-2019
</metadata>
<g transform="translate(0.000000,720.000000) scale(0.100000,-0.100000)"
fill="#000000" stroke="none">
<path d="M5315 5327 c-39 -18 -63 -46 -75 -86 l-9 -31 57 0 c31 0 121 -3 198
-7 l141 -6 5 31 c6 39 -14 88 -39 96 -10 3 -70 8 -133 11 -87 4 -122 2 -145
-8z"/>
<path d="M4830 5266 l-145 -43 2 -63 c1 -34 4 -64 6 -66 4 -4 87 19 296 82
l83 25 -6 32 c-7 35 -48 77 -74 76 -9 0 -82 -20 -162 -43z"/>
<path d="M5808 5236 l-27 -54 27 -11 c63 -24 344 -101 352 -96 13 8 23 70 15
94 -3 12 -15 26 -26 32 -24 12 -282 89 -301 89 -8 0 -26 -24 -40 -54z"/>
<path d="M5233 5174 c-15 -7 -48 -184 -39 -217 3 -15 14 -31 24 -36 32 -17
274 -18 306 -2 37 20 62 65 75 136 6 33 14 72 17 88 l6 27 -65 0 c-73 0 -71 2
-83 -83 -3 -26 -10 -49 -14 -52 -4 -3 -36 -2 -70 2 l-62 6 6 31 c4 17 9 48 13
69 l6 37 -54 -1 c-30 0 -59 -3 -66 -5z"/>
<path d="M4366 5087 c-71 -45 -138 -94 -149 -109 -22 -29 -27 -112 -9 -130 6
-6 67 27 171 94 179 114 172 103 133 190 l-17 38 -129 -83z"/>
<path d="M4862 5107 l-173 -51 5 -31 c3 -16 8 -74 12 -128 4 -64 11 -100 19
-103 7 -3 35 1 61 9 l49 14 -3 86 -3 85 58 16 c112 32 142 46 163 80 25 42 27
76 3 75 -10 -1 -96 -24 -191 -52z"/>
<path d="M5703 5028 c-32 -62 -59 -115 -61 -119 -3 -6 117 -43 123 -37 1 2 19
35 38 75 l36 71 53 -15 c29 -8 57 -19 61 -22 4 -4 -6 -38 -23 -75 -16 -37 -30
-69 -30 -71 0 -3 40 -19 86 -33 l31 -10 43 79 c30 58 40 87 36 105 -5 19 -1
27 19 36 49 22 54 19 -216 97 -59 17 -114 31 -123 31 -9 0 -37 -42 -73 -112z"/>
<path d="M6342 5027 l-41 -42 147 -95 c81 -52 156 -100 168 -107 19 -12 24 -9
62 36 l42 49 -159 101 c-87 56 -163 101 -168 101 -5 0 -28 -19 -51 -43z"/>
<path d="M4369 4895 c-74 -47 -135 -92 -137 -99 -4 -20 37 -46 73 -46 19 0 58
18 105 49 62 41 76 46 84 34 5 -9 4 -18 -1 -22 -5 -3 -56 -35 -112 -70 -56
-36 -100 -69 -98 -75 2 -6 12 -35 21 -63 10 -29 19 -53 21 -53 2 0 66 40 142
88 125 80 139 92 153 130 13 37 12 47 -4 98 -19 62 -62 114 -93 114 -11 0 -80
-38 -154 -85z"/>
<path d="M6298 4794 c-49 -52 -88 -97 -88 -102 0 -9 42 -42 77 -61 21 -11 28
-6 90 61 38 40 78 83 91 96 27 28 25 32 -36 70 l-47 29 -87 -93z"/>
<path d="M5542 4490 l-263 -5 -23 -60 c-13 -33 -45 -121 -71 -195 -26 -74 -53
-148 -60 -165 -47 -113 -156 -437 -152 -450 5 -12 28 -15 127 -15 119 0 121 0
110 -21 -6 -11 -17 -39 -25 -62 -7 -23 -43 -127 -80 -232 -128 -364 -165 -473
-165 -484 0 -23 36 -9 68 27 59 66 205 225 278 302 39 41 100 106 135 145 35
38 66 72 70 75 3 3 48 52 100 110 99 110 219 240 326 351 35 37 63 74 63 83 0
14 -23 16 -206 16 -161 0 -205 3 -201 13 13 30 168 371 205 450 39 82 52 130
35 125 -5 -1 -126 -5 -271 -8z m218 -45 c0 -5 -3 -12 -93 -210 -131 -286 -156
-346 -152 -358 4 -9 51 -11 195 -9 105 2 190 0 190 -3 0 -4 -22 -30 -48 -58
-27 -29 -138 -149 -247 -267 -109 -118 -220 -237 -245 -265 -26 -27 -100 -107
-165 -177 -64 -71 -120 -128 -124 -128 -4 0 -15 -14 -25 -31 -10 -17 -20 -29
-22 -27 -2 2 28 94 67 203 154 435 179 510 174 523 -3 9 -37 12 -120 12 -85 0
-115 3 -115 13 0 11 29 96 49 142 5 11 48 130 96 265 106 300 126 352 138 368
7 9 65 12 228 12 121 0 219 -2 219 -5z"/>
<path d="M5903 2567 c-121 -63 -140 -79 -152 -125 -11 -38 -4 -92 12 -92 5 0
84 39 174 86 175 93 186 104 146 153 -34 40 -69 36 -180 -22z"/>
<path d="M4704 2525 c-20 -25 -35 -47 -33 -49 12 -12 297 -166 307 -166 10 0
86 90 80 95 -12 11 -299 165 -307 165 -5 0 -26 -20 -47 -45z"/>
<path d="M6075 2474 c-16 -9 -40 -22 -51 -29 l-21 -14 19 -57 c10 -31 17 -63
14 -70 -7 -18 -107 -68 -116 -57 -4 4 -13 31 -20 58 -7 28 -15 53 -17 57 -5
10 -113 -44 -113 -57 0 -5 12 -48 25 -95 29 -99 60 -136 106 -126 15 3 75 31
133 62 110 60 136 88 136 149 0 33 -48 195 -58 195 -4 -1 -20 -8 -37 -16z"/>
<path d="M4552 2343 c-80 -96 -81 -98 -61 -113 29 -20 280 -160 288 -160 13 0
82 90 76 99 -3 6 -46 31 -95 58 -50 26 -90 51 -90 56 0 24 39 13 119 -32 50
-28 94 -51 98 -51 15 0 65 72 57 80 -16 14 -288 160 -300 160 -6 0 -48 -44
-92 -97z"/>
<path d="M5225 2388 c-3 -13 -9 -42 -14 -65 l-9 -43 63 0 c35 0 66 3 68 8 3 4
8 33 12 65 l7 57 -61 0 c-55 0 -61 -2 -66 -22z"/>
<path d="M5204 2242 c-10 -6 -68 -252 -62 -257 2 -2 82 -6 180 -10 l176 -7 6
29 c3 15 8 44 11 64 l7 36 -107 6 c-59 3 -109 8 -112 11 -3 2 0 29 7 60 6 31
9 60 5 66 -7 11 -94 13 -111 2z"/>
</g>
</svg>
